<?xml version="1.0" encoding="utf-8"?>
<!-- Generator: Adobe Illustrator 21.1.0, SVG Export Plug-In . SVG Version: 6.00 Build 0)  -->
<svg version="1.1" id="Logo" xmlns="http://www.w3.org/2000/svg" xmlns:xlink="http://www.w3.org/1999/xlink" x="0px" y="0px"
	 viewBox="0 0 35 35" style="enable-background:new 0 0 35 35;" xml:space="preserve">
<style type="text/css">
	.st0{fill:#FFFFFF;}
</style>
<path class="st0" d="M22.8,8.4c0,1.4,1.5,2.7,4.5,3.7c3.8,1.3,6.4,3.1,7.7,5.2c0-2.3-0.5-4.4-1.3-6.4l-2,0.4
	c0.1-0.6,0.2-1.2,0.2-1.6c0-2.8-1.7-4.2-5.1-4.2C24.2,5.5,22.8,6.5,22.8,8.4z"/>
<path class="st0" d="M6.1,4.2C2.4,7.5,0,12.2,0,17.5c0,1.7,0.3,3.4,0.7,4.9L6.1,4.2z"/>
<path class="st0" d="M27.1,28.4c-5.9,0-8.9-2.3-8.9-6.9c0-0.4,0-0.8,0.1-1.4l3.4-0.7c-0.3,1-0.4,1.9-0.4,2.7c0,3,1.7,4.5,5.1,4.5
	c2.7,0,4.1-1.1,4.1-3.2c0-1.6-1.6-3-4.9-4.2c-4.7-1.7-7.1-4.5-7.1-8.3c0-2.2,0.8-3.9,2.4-5.2s3.6-2,6.2-2c0.4,0,0.8,0,1.1,0
	C25.2,1.4,21.5,0,17.5,0C13.3,0,9.4,1.5,6.4,4h5.9L19,28h-7l-1.4-5.2H3.3l-1,3.4c3,5.3,8.7,8.8,15.2,8.8c6,0,11.2-3,14.4-7.6
	C30.5,28.1,28.9,28.4,27.1,28.4z"/>
<polygon class="st0" points="4,20.4 9.9,20.4 7.1,9.8 "/>
</svg>
